<svg width="49" height="48" viewBox="0 0 49 48" fill="none" xmlns="http://www.w3.org/2000/svg">
<path d="M21.7416 27.7675V43.0091H6.5C6.5 38.9668 8.1058 35.09 10.9641 32.2317C13.8225 29.3733 17.6992 27.7675 21.7416 27.7675ZM33.1727 42.0565L27.5733 45L28.6422 38.7662L24.1135 34.35L30.374 33.4393L33.1727 27.7675L35.9733 33.4393L42.2319 34.35L37.7033 38.7662L38.7702 45L33.1727 42.0565ZM21.7416 25.8623C15.4258 25.8623 10.3104 20.7469 10.3104 14.4312C10.3104 8.11545 15.4258 3 21.7416 3C28.0573 3 33.1727 8.11545 33.1727 14.4312C33.1727 20.7469 28.0573 25.8623 21.7416 25.8623Z" fill="white"/>
</svg>
