<svg width="49" height="48" viewBox="0 0 49 48" fill="none" xmlns="http://www.w3.org/2000/svg">
<path d="M45.3321 12.3016C45.119 11.7886 44.7114 11.381 44.1984 11.168C43.946 11.0604 43.675 11.0033 43.4006 11H32.9037C32.3469 11 31.8129 11.2212 31.4192 11.6149C31.0254 12.0086 30.8043 12.5426 30.8043 13.0994C30.8043 13.6562 31.0254 14.1902 31.4192 14.5839C31.8129 14.9776 32.3469 15.1988 32.9037 15.1988H38.3411L26.6055 26.9344L19.6985 20.0064C19.5033 19.8096 19.2711 19.6534 19.0153 19.5469C18.7595 19.4403 18.4851 19.3854 18.2079 19.3854C17.9308 19.3854 17.6564 19.4403 17.4005 19.5469C17.1447 19.6534 16.9125 19.8096 16.7173 20.0064L4.121 32.6027C3.92422 32.7979 3.76804 33.0301 3.66146 33.2859C3.55487 33.5418 3.5 33.8162 3.5 34.0933C3.5 34.3704 3.55487 34.6448 3.66146 34.9007C3.76804 35.1565 3.92422 35.3887 4.121 35.5839C4.31616 35.7806 4.54836 35.9368 4.80419 36.0434C5.06002 36.15 5.33442 36.2049 5.61156 36.2049C5.88871 36.2049 6.16311 36.15 6.41894 36.0434C6.67477 35.9368 6.90697 35.7806 7.10213 35.5839L18.2079 24.4571L25.1149 31.3851C25.3101 31.5819 25.5423 31.738 25.7981 31.8446C26.0539 31.9512 26.3283 32.0061 26.6055 32.0061C26.8826 32.0061 27.157 31.9512 27.4129 31.8446C27.6687 31.738 27.9009 31.5819 28.096 31.3851L41.3012 18.1589V23.5963C41.3012 24.1531 41.5224 24.6871 41.9161 25.0808C42.3098 25.4746 42.8438 25.6957 43.4006 25.6957C43.9574 25.6957 44.4914 25.4746 44.8851 25.0808C45.2788 24.6871 45.5 24.1531 45.5 23.5963V13.0994C45.4967 12.825 45.4396 12.554 45.3321 12.3016Z" fill="white"/>
</svg>
