<svg width="100" height="100" viewBox="0 0 100 100" fill="none" xmlns="http://www.w3.org/2000/svg">
<path d="M30.8368 30.8368C31.9526 29.7211 33.7617 29.7211 34.8774 30.8368L50 45.9594L65.1226 30.8368C66.2383 29.7211 68.0474 29.7211 69.1632 30.8368C70.2789 31.9526 70.2789 33.7617 69.1632 34.8774L54.0406 50L69.1632 65.1226C70.2789 66.2383 70.2789 68.0474 69.1632 69.1632C68.0474 70.2789 66.2383 70.2789 65.1226 69.1632L50 54.0406L34.8774 69.1632C33.7617 70.2789 31.9526 70.2789 30.8368 69.1632C29.7211 68.0474 29.7211 66.2383 30.8368 65.1226L45.9594 50L30.8368 34.8774C29.7211 33.7617 29.7211 31.9526 30.8368 30.8368Z" fill="white"/>
</svg>
