<svg width="48" height="48" viewBox="0 0 48 48" fill="none" xmlns="http://www.w3.org/2000/svg">
<path d="M22 36C22 37.0333 22.1087 38.0587 22.326 39.076C22.542 40.092 22.8833 41.0667 23.35 42H8C6.9 42 5.95867 41.6087 5.176 40.826C4.392 40.042 4 39.1 4 38V16C4 14.9 4.392 13.9587 5.176 13.176C5.95867 12.392 6.9 12 8 12H16V8C16 6.9 16.392 5.958 17.176 5.174C17.9587 4.39133 18.9 4 20 4H28C29.1 4 30.042 4.39133 30.826 5.174C31.6087 5.958 32 6.9 32 8V12H40C41.1 12 42.042 12.392 42.826 13.176C43.6087 13.9587 44 14.9 44 16V24.55C42.8333 23.7167 41.5667 23.0833 40.2 22.65C38.8333 22.2167 37.4333 22 36 22C32.1333 22 28.8333 23.3667 26.1 26.1C23.3667 28.8333 22 32.1333 22 36ZM20 12H28V8H20V12ZM36 46C33.2333 46 30.8753 45.0253 28.926 43.076C26.9753 41.1253 26 38.7667 26 36C26 33.2333 26.9753 30.8747 28.926 28.924C30.8753 26.9747 33.2333 26 36 26C38.7667 26 41.1253 26.9747 43.076 28.924C45.0253 30.8747 46 33.2333 46 36C46 38.7667 45.0253 41.1253 43.076 43.076C41.1253 45.0253 38.7667 46 36 46ZM39.3 40.7L40.7 39.3L37 35.6V30H35V36.4L39.3 40.7Z" fill="white"/>
</svg>
