<svg width="48" height="48" viewBox="0 0 48 48" fill="none" xmlns="http://www.w3.org/2000/svg">
<g clip-path="url(#clip0_16_162)">
<path d="M17.7 23.8C22.3397 23.8 26.1 20.039 26.1 15.4C26.1 10.761 22.3397 7 17.7 7C13.0603 7 9.3 10.761 9.3 15.4C9.3 20.039 13.0603 23.8 17.7 23.8ZM21.0272 26.95H14.3728C8.09053 26.95 3 32.0425 3 38.3228C3 39.5828 4.0185 40.6 5.27456 40.6H30.1228C31.3828 40.6 32.4 39.5828 32.4 38.3228C32.4 32.0425 27.3075 26.95 21.0272 26.95ZM34.4409 28H29.5945C32.61 30.4741 34.5 34.1753 34.5 38.3228C34.5 39.1628 34.2506 39.9372 33.8437 40.6H42.9C44.0616 40.6 45 39.655 45 38.4409C45 32.6988 40.3013 28 34.4409 28ZM31.35 23.8C35.4122 23.8 38.7 20.5122 38.7 16.45C38.7 12.3878 35.4122 9.1 31.35 9.1C29.7022 9.1 28.1974 9.66142 26.9715 10.5772C27.7275 12.0288 28.2 13.6544 28.2 15.4C28.2 17.731 27.4171 19.8717 26.1269 21.6153C27.4584 22.96 29.3025 23.8 31.35 23.8Z" fill="#FFFDFD"/>
</g>
<defs>
<clipPath id="clip0_16_162">
<rect width="42" height="33.6" fill="white" transform="translate(3 7)"/>
</clipPath>
</defs>
</svg>
