<svg width="48" height="48" viewBox="0 0 48 48" fill="none" xmlns="http://www.w3.org/2000/svg">
<g clip-path="url(#clip0_16_166)">
<path d="M24 3C19.8466 3 15.7865 4.23163 12.333 6.53914C8.8796 8.84665 6.18798 12.1264 4.59854 15.9636C3.0091 19.8009 2.59323 24.0233 3.40352 28.0969C4.21381 32.1705 6.21386 35.9123 9.15077 38.8492C12.0877 41.7861 15.8295 43.7862 19.9031 44.5965C23.9767 45.4068 28.1991 44.9909 32.0364 43.4015C35.8736 41.812 39.1534 39.1204 41.4609 35.667C43.7684 32.2135 45 28.1534 45 24C45 18.4304 42.7875 13.089 38.8492 9.15076C34.911 5.21249 29.5695 3 24 3ZM12.0431 18.6056C12.0431 18.0864 12.1971 17.5789 12.4855 17.1472C12.774 16.7156 13.1839 16.3791 13.6636 16.1804C14.1432 15.9818 14.671 15.9298 15.1802 16.0311C15.6894 16.1323 16.1572 16.3824 16.5243 16.7495C16.8914 17.1166 17.1414 17.5843 17.2427 18.0935C17.344 18.6027 17.292 19.1305 17.0933 19.6102C16.8946 20.0898 16.5582 20.4998 16.1265 20.7882C15.6948 21.0767 15.1873 21.2306 14.6681 21.2306C13.9719 21.2306 13.3043 20.9541 12.812 20.4618C12.3197 19.9695 12.0431 19.3018 12.0431 18.6056ZM24.1706 37.4006C21.7628 37.4038 19.4161 36.6431 17.468 35.228C15.5199 33.8129 14.0709 31.8164 13.3294 29.5256H34.9988C34.2579 31.8143 32.8109 33.8093 30.8654 35.2242C28.92 36.639 26.5762 37.401 24.1706 37.4006ZM33.2663 21.2306C32.7471 21.2306 32.2396 21.0767 31.8079 20.7882C31.3762 20.4998 31.0397 20.0898 30.8411 19.6102C30.6424 19.1305 30.5904 18.6027 30.6917 18.0935C30.793 17.5843 31.043 17.1166 31.4101 16.7495C31.7772 16.3824 32.2449 16.1323 32.7541 16.0311C33.2633 15.9298 33.7911 15.9818 34.2708 16.1804C34.7505 16.3791 35.1604 16.7156 35.4489 17.1472C35.7373 17.5789 35.8913 18.0864 35.8913 18.6056C35.8913 18.9514 35.8229 19.2939 35.6902 19.6132C35.5574 19.9325 35.3629 20.2225 35.1178 20.4664C34.8726 20.7104 34.5817 20.9034 34.2617 21.0346C33.9417 21.1657 33.5989 21.2323 33.2531 21.2306H33.2663Z" fill="white"/>
</g>
<defs>
<clipPath id="clip0_16_166">
<rect width="48" height="48" fill="white"/>
</clipPath>
</defs>
</svg>
