<svg width="48" height="48" viewBox="0 0 48 48" fill="none" xmlns="http://www.w3.org/2000/svg">
<path d="M36.5 15.6C39.9793 15.6 42.8 12.7794 42.8 9.3C42.8 5.82061 39.9793 3 36.5 3C33.0206 3 30.2 5.82061 30.2 9.3C30.2 12.7794 33.0206 15.6 36.5 15.6Z" stroke="white" stroke-width="3"/>
<path d="M36.5 45C39.9793 45 42.8 42.1794 42.8 38.7C42.8 35.2206 39.9793 32.4 36.5 32.4C33.0206 32.4 30.2 35.2206 30.2 38.7C30.2 42.1794 33.0206 45 36.5 45Z" stroke="white" stroke-width="3"/>
<path d="M11.3 30.3C14.7794 30.3 17.6 27.4794 17.6 24C17.6 20.5206 14.7794 17.7 11.3 17.7C7.82061 17.7 5 20.5206 5 24C5 27.4794 7.82061 30.3 11.3 30.3Z" stroke="white" stroke-width="3"/>
<path d="M31.0567 12.4752L16.7473 20.8227M31.0567 35.5248L16.7473 27.1773" stroke="white" stroke-width="3" stroke-linecap="round" stroke-linejoin="round"/>
</svg>
