<svg width="223" height="47" viewBox="0 0 223 47" fill="none" xmlns="http://www.w3.org/2000/svg">
<path d="M4.97621 17.4C6.72821 17.4 8.07221 17.736 9.00821 18.408C9.95621 19.068 10.4302 20.058 10.4302 21.378C10.4302 22.098 10.2982 22.716 10.0342 23.232C9.78221 23.736 9.41021 24.15 8.91821 24.474C8.43821 24.786 7.85021 25.014 7.15421 25.158C6.45821 25.302 5.67221 25.374 4.79621 25.374H3.41021V30H1.66421V17.706C2.15621 17.586 2.70221 17.508 3.30221 17.472C3.91421 17.424 4.47221 17.4 4.97621 17.4ZM5.12021 18.93C4.37621 18.93 3.80621 18.948 3.41021 18.984V23.88H4.72421C5.32421 23.88 5.86421 23.844 6.34421 23.772C6.82421 23.688 7.22621 23.556 7.55021 23.376C7.88621 23.184 8.14421 22.926 8.32421 22.602C8.50421 22.278 8.59421 21.864 8.59421 21.36C8.59421 20.88 8.49821 20.484 8.30621 20.172C8.12621 19.86 7.87421 19.614 7.55021 19.434C7.23821 19.242 6.87221 19.11 6.45221 19.038C6.03221 18.966 5.58821 18.93 5.12021 18.93ZM20.0529 30C19.8489 29.46 19.6569 28.932 19.4769 28.416C19.2969 27.888 19.1109 27.354 18.9189 26.814H13.2669L12.1329 30H10.3149C10.7949 28.68 11.2449 27.462 11.6649 26.346C12.0849 25.218 12.4929 24.15 12.8889 23.142C13.2969 22.134 13.6989 21.174 14.0949 20.262C14.4909 19.338 14.9049 18.426 15.3369 17.526H16.9389C17.3709 18.426 17.7849 19.338 18.1809 20.262C18.5769 21.174 18.9729 22.134 19.3689 23.142C19.7769 24.15 20.1909 25.218 20.6109 26.346C21.0309 27.462 21.4809 28.68 21.9609 30H20.0529ZM18.4149 25.374C18.0309 24.33 17.6469 23.322 17.2629 22.35C16.8909 21.366 16.5009 20.424 16.0929 19.524C15.6729 20.424 15.2709 21.366 14.8869 22.35C14.5149 23.322 14.1429 24.33 13.7709 25.374H18.4149ZM29.7564 24.78C29.9484 25.02 30.1884 25.338 30.4764 25.734C30.7764 26.118 31.0824 26.55 31.3944 27.03C31.7064 27.498 32.0124 27.99 32.3124 28.506C32.6244 29.022 32.8884 29.52 33.1044 30H31.1964C30.9564 29.544 30.6924 29.082 30.4044 28.614C30.1284 28.146 29.8464 27.702 29.5584 27.282C29.2704 26.85 28.9824 26.448 28.6944 26.076C28.4184 25.704 28.1664 25.38 27.9384 25.104C27.7824 25.116 27.6204 25.122 27.4524 25.122C27.2964 25.122 27.1344 25.122 26.9664 25.122H25.4004V30H23.6544V17.706C24.1464 17.586 24.6924 17.508 25.2924 17.472C25.9044 17.424 26.4624 17.4 26.9664 17.4C28.7184 17.4 30.0504 17.73 30.9624 18.39C31.8864 19.05 32.3484 20.034 32.3484 21.342C32.3484 22.17 32.1264 22.878 31.6824 23.466C31.2504 24.054 30.6084 24.492 29.7564 24.78ZM27.1104 18.93C26.3664 18.93 25.7964 18.948 25.4004 18.984V23.682H26.6424C27.2424 23.682 27.7824 23.652 28.2624 23.592C28.7424 23.532 29.1444 23.418 29.4684 23.25C29.8044 23.082 30.0624 22.848 30.2424 22.548C30.4224 22.236 30.5124 21.828 30.5124 21.324C30.5124 20.856 30.4224 20.466 30.2424 20.154C30.0624 19.842 29.8164 19.596 29.5044 19.416C29.2044 19.236 28.8444 19.11 28.4244 19.038C28.0164 18.966 27.5784 18.93 27.1104 18.93ZM43.3088 17.526V19.038H39.3848V30H37.6388V19.038H33.7148V17.526H43.3088ZM53.7025 30C53.4385 29.556 53.1325 29.058 52.7845 28.506C52.4485 27.954 52.0825 27.384 51.6865 26.796C51.2905 26.196 50.8765 25.59 50.4445 24.978C50.0245 24.366 49.6045 23.778 49.1845 23.214C48.7645 22.638 48.3565 22.098 47.9605 21.594C47.5645 21.09 47.1985 20.646 46.8625 20.262V30H45.1525V17.526H46.5385C47.1025 18.126 47.7025 18.828 48.3385 19.632C48.9865 20.424 49.6225 21.246 50.2465 22.098C50.8825 22.938 51.4765 23.766 52.0285 24.582C52.5925 25.398 53.0665 26.124 53.4505 26.76V17.526H55.1605V30H53.7025ZM58.2482 30V17.526H65.8622V19.02H59.9942V22.728H65.2142V24.186H59.9942V28.506H66.3122V30H58.2482ZM74.6334 24.78C74.8254 25.02 75.0654 25.338 75.3534 25.734C75.6534 26.118 75.9594 26.55 76.2714 27.03C76.5834 27.498 76.8894 27.99 77.1894 28.506C77.5014 29.022 77.7654 29.52 77.9814 30H76.0734C75.8334 29.544 75.5694 29.082 75.2814 28.614C75.0054 28.146 74.7234 27.702 74.4354 27.282C74.1474 26.85 73.8594 26.448 73.5714 26.076C73.2954 25.704 73.0434 25.38 72.8154 25.104C72.6594 25.116 72.4974 25.122 72.3294 25.122C72.1734 25.122 72.0114 25.122 71.8434 25.122H70.2774V30H68.5314V17.706C69.0234 17.586 69.5694 17.508 70.1694 17.472C70.7814 17.424 71.3394 17.4 71.8434 17.4C73.5954 17.4 74.9274 17.73 75.8394 18.39C76.7634 19.05 77.2254 20.034 77.2254 21.342C77.2254 22.17 77.0034 22.878 76.5594 23.466C76.1274 24.054 75.4854 24.492 74.6334 24.78ZM71.9874 18.93C71.2434 18.93 70.6734 18.948 70.2774 18.984V23.682H71.5194C72.1194 23.682 72.6594 23.652 73.1394 23.592C73.6194 23.532 74.0214 23.418 74.3454 23.25C74.6814 23.082 74.9394 22.848 75.1194 22.548C75.2994 22.236 75.3894 21.828 75.3894 21.324C75.3894 20.856 75.2994 20.466 75.1194 20.154C74.9394 19.842 74.6934 19.596 74.3814 19.416C74.0814 19.236 73.7214 19.11 73.3014 19.038C72.8934 18.966 72.4554 18.93 71.9874 18.93ZM82.7497 28.758C84.5737 28.758 85.4857 28.134 85.4857 26.886C85.4857 26.502 85.4017 26.178 85.2337 25.914C85.0777 25.638 84.8617 25.404 84.5857 25.212C84.3097 25.008 83.9917 24.834 83.6317 24.69C83.2837 24.546 82.9117 24.402 82.5157 24.258C82.0597 24.102 81.6277 23.928 81.2197 23.736C80.8117 23.532 80.4577 23.298 80.1577 23.034C79.8577 22.758 79.6177 22.434 79.4377 22.062C79.2697 21.69 79.1857 21.24 79.1857 20.712C79.1857 19.62 79.5577 18.768 80.3017 18.156C81.0457 17.544 82.0717 17.238 83.3797 17.238C84.1357 17.238 84.8197 17.322 85.4317 17.49C86.0557 17.646 86.5117 17.82 86.7997 18.012L86.2417 19.434C85.9897 19.278 85.6117 19.128 85.1077 18.984C84.6157 18.828 84.0397 18.75 83.3797 18.75C83.0437 18.75 82.7317 18.786 82.4437 18.858C82.1557 18.93 81.9037 19.038 81.6877 19.182C81.4717 19.326 81.2977 19.512 81.1657 19.74C81.0457 19.956 80.9857 20.214 80.9857 20.514C80.9857 20.85 81.0517 21.132 81.1837 21.36C81.3157 21.588 81.5017 21.792 81.7417 21.972C81.9817 22.14 82.2577 22.296 82.5697 22.44C82.8937 22.584 83.2477 22.728 83.6317 22.872C84.1717 23.088 84.6637 23.304 85.1077 23.52C85.5637 23.736 85.9537 23.994 86.2777 24.294C86.6137 24.594 86.8717 24.954 87.0517 25.374C87.2317 25.782 87.3217 26.28 87.3217 26.868C87.3217 27.96 86.9197 28.8 86.1157 29.388C85.3237 29.976 84.2017 30.27 82.7497 30.27C82.2577 30.27 81.8017 30.234 81.3817 30.162C80.9737 30.102 80.6077 30.03 80.2837 29.946C79.9597 29.85 79.6777 29.754 79.4377 29.658C79.2097 29.55 79.0297 29.46 78.8977 29.388L79.4197 27.948C79.6957 28.104 80.1157 28.278 80.6797 28.47C81.2437 28.662 81.9337 28.758 82.7497 28.758Z" fill="#AC82DD"/>
<g clip-path="url(#clip0_33_618)">
<path d="M168.507 17.76L168.512 36.6639L173.635 36.6626L173.624 13.8877L168.507 17.76Z" fill="#AD82DD"/>
<path d="M186.836 13.816C183.764 13.8159 180.815 15.0299 178.634 17.1933C176.452 19.3568 175.215 22.2944 175.19 25.3663C175.215 28.4382 176.452 31.3758 178.634 33.5393C180.815 35.7027 183.764 36.9167 186.836 36.9166C193.195 36.9166 198.483 31.677 198.483 25.3663C198.458 22.2944 197.22 19.3568 195.039 17.1933C192.857 15.0299 189.909 13.8159 186.836 13.816ZM180.291 25.3663C180.253 24.4849 180.395 23.6049 180.707 22.7797C181.019 21.9545 181.496 21.2013 182.108 20.5656C182.72 19.9299 183.454 19.4249 184.267 19.0813C185.08 18.7377 185.954 18.5626 186.836 18.5666C190.68 18.5433 193.381 21.5938 193.381 25.3663C193.419 26.2477 193.278 27.1277 192.966 27.9529C192.653 28.7781 192.177 29.5313 191.565 30.167C190.953 30.8027 190.218 31.3077 189.406 31.6513C188.593 31.9949 187.719 32.17 186.836 32.1661C183.016 32.1661 180.291 29.1155 180.291 25.3663Z" fill="#AD82DD"/>
<path d="M211.342 13.8024C208.269 13.8023 205.321 15.0162 203.14 17.1797C200.958 19.3431 199.72 22.2808 199.696 25.3527C199.72 28.4246 200.958 31.3622 203.14 33.5257C205.321 35.6892 208.269 36.9031 211.342 36.903C217.701 36.903 222.988 31.6634 222.988 25.3527C222.964 22.2808 221.726 19.3431 219.544 17.1797C217.363 15.0162 214.415 13.8023 211.342 13.8024ZM204.797 25.3527C204.773 21.6035 207.522 18.5529 211.342 18.5296C215.162 18.5063 217.887 21.5802 217.887 25.3527C217.925 26.2341 217.783 27.1141 217.471 27.9393C217.159 28.7645 216.682 29.5177 216.071 30.1534C215.459 30.7891 214.724 31.2941 213.911 31.6377C213.098 31.9813 212.224 32.1564 211.342 32.1525C207.522 32.1525 204.797 29.1019 204.797 25.3527Z" fill="#AD82DD"/>
<path d="M95.8092 0.0381889L87.9998 0.279659L119.801 24.5876L102.008 32.2342L107.564 34.3269L110.381 33.2805L108.449 34.6489L112.314 36.0977L116.742 34.4879L113.602 36.5806L118.03 38.2709L129.623 32.0732L140.895 40.6856C146.53 44.9516 153.535 47.2053 160.619 46.9638L168.509 46.7224L144.518 24.1852L156.755 17.9874C159.331 16.7801 161.022 17.3435 161.022 17.3435C159.734 13.1581 155.95 14.3654 155.95 14.3654C155.306 14.5264 154.098 14.7679 153.535 15.0898C153.961 14.5262 154.478 14.0367 155.064 13.641C149.992 11.7092 141.297 15.0093 136.789 16.9411L134.293 14.6069C124.31 5.18955 111.106 0.0381889 97.4194 0.0381889H95.8092Z" fill="#AC82DD"/>
</g>
<defs>
<clipPath id="clip0_33_618">
<rect width="135" height="47" fill="white" transform="translate(88)"/>
</clipPath>
</defs>
</svg>
