<svg width="21" height="21" viewBox="0 0 21 21" fill="none" xmlns="http://www.w3.org/2000/svg">
<path d="M20.447 7.679C20.3842 7.49387 20.2685 7.33119 20.1142 7.21106C19.96 7.09093 19.7739 7.0186 19.579 7.003L13.878 6.55L11.411 1.089C11.3325 0.913112 11.2047 0.763722 11.0431 0.658858C10.8815 0.553994 10.693 0.498138 10.5004 0.498033C10.3077 0.497927 10.1192 0.553575 9.95745 0.658262C9.79574 0.762948 9.66779 0.912199 9.58903 1.088L7.12203 6.55L1.42103 7.003C1.22948 7.01817 1.04636 7.08821 0.893581 7.20473C0.740798 7.32125 0.624819 7.47932 0.559519 7.66003C0.49422 7.84074 0.482364 8.03643 0.525371 8.2237C0.568378 8.41097 0.664427 8.58189 0.802026 8.716L5.01503 12.823L3.52503 19.275C3.47978 19.4703 3.49428 19.6747 3.56665 19.8616C3.63901 20.0486 3.76589 20.2095 3.93083 20.3234C4.09577 20.4374 4.29115 20.4991 4.49161 20.5007C4.69208 20.5022 4.88837 20.4434 5.05503 20.332L10.5 16.702L15.945 20.332C16.1154 20.4451 16.3162 20.5033 16.5207 20.4988C16.7251 20.4944 16.9232 20.4274 17.0884 20.3069C17.2536 20.1865 17.378 20.0183 17.4448 19.8251C17.5116 19.6318 17.5176 19.4228 17.462 19.226L15.633 12.826L20.169 8.744C20.466 8.476 20.575 8.058 20.447 7.679Z" fill="white"/>
</svg>
